<svg width="12" height="8" viewBox="0 0 12 8" fill="none" xmlns="http://www.w3.org/2000/svg">
<path d="M11.5921 3.85C11.578 3.8125 11.1796 2.93125 10.2983 2.04531C9.12178 0.873438 7.63584 0.25 5.9999 0.25C4.36397 0.25 2.87803 0.873438 1.70147 2.04531C0.820217 2.93125 0.421779 3.8125 0.407717 3.85C0.386788 3.89724 0.375977 3.94833 0.375977 4C0.375977 4.05167 0.386788 4.10276 0.407717 4.15C0.421779 4.1875 0.820217 5.06875 1.70147 5.95469C2.87803 7.12656 4.36397 7.75 5.9999 7.75C7.63584 7.75 9.12178 7.12656 10.2983 5.95469C11.1796 5.06875 11.578 4.1875 11.5921 4.15C11.613 4.10276 11.6238 4.05167 11.6238 4C11.6238 3.94833 11.613 3.89724 11.5921 3.85ZM5.9999 7C4.55615 7 3.29522 6.475 2.25459 5.43906C1.82453 5.01552 1.45963 4.53056 1.17178 4C1.45924 3.46779 1.82416 2.98123 2.25459 2.55625C3.29522 1.525 4.55615 1 5.9999 1C7.44365 1 8.70459 1.525 9.74522 2.55625C10.1757 2.98123 10.5406 3.46779 10.828 4C10.4905 4.63281 9.01865 7 5.9999 7ZM5.9999 1.75C5.5549 1.75 5.11988 1.88196 4.74987 2.12919C4.37986 2.37643 4.09147 2.72783 3.92118 3.13896C3.75088 3.5501 3.70632 4.0025 3.79314 4.43895C3.87995 4.87541 4.09425 5.27632 4.40891 5.59099C4.72358 5.90566 5.12449 6.11995 5.56095 6.20677C5.99741 6.29358 6.44981 6.24903 6.86094 6.07873C7.27208 5.90843 7.62348 5.62004 7.87071 5.25003C8.11794 4.88002 8.2499 4.44501 8.2499 4C8.2499 3.40326 8.01285 2.83097 7.59089 2.40901C7.16894 1.98705 6.59664 1.75 5.9999 1.75ZM5.9999 5.5C5.70323 5.5 5.41322 5.41203 5.16655 5.2472C4.91988 5.08238 4.72762 4.84811 4.61408 4.57402C4.50055 4.29994 4.47085 3.99834 4.52873 3.70736C4.5866 3.41639 4.72947 3.14912 4.93924 2.93934C5.14902 2.72956 5.4163 2.5867 5.70727 2.52882C5.99824 2.47094 6.29984 2.50065 6.57393 2.61418C6.84802 2.72771 7.08229 2.91997 7.24711 3.16664C7.41193 3.41332 7.4999 3.70333 7.4999 4C7.49867 4.39744 7.34024 4.77826 7.0592 5.05929C6.77816 5.34033 6.39735 5.49876 5.9999 5.5Z" fill="#808080"/>
</svg>
